# xmcd
#
# Track frame offsets:
# 225
# 14486
# 28328
# 42059
# 56996
# 71085
# 81212
# 91922
# 105034
# 119485
# 133865
# 148400
# 161825
# 174713
# 185271
# 198175
# 209910
# 222645
# 237906
# 250550
# 264841
# 279020
# 291615
# 305369
# 318409
#
# Disc length: 4413 seconds
#
# Revision: 0
# Processed by: cddbd v1.5.1PL0 Copyright (c) Steve Scherf et al.
# Submitted via: Audion 3.0.2 (http://www.panic.com/audion/)
#
DISCID=81113a19
DTITLE=Vic Damone - Sings Romantic Favorites
DYEAR=1900
DGENRE=
TTITLE0=Serenade of the Bells
TTITLE1=Laroo, Laroo, Lilli Bolero
TTITLE2=If I had you
TTITLE3=They did'nt believe me
TTITLE4=The way you look tonight
TTITLE5=Love is just around the corner
TTITLE6=It's magic
TTITLE7=At half past seven
TTITLE8=Isn't it romantic
TTITLE9=I love you so much it hurts
TTITLE10=Lonely Night
TTITLE11=I had'nt anyone till you
TTITLE12=Take me in your arms
TTITLE13=Beloved be faithful
TTITLE14=If
TTITLE15=You and your beautiful eyes
TTITLE16=Easy to love
TTITLE17=I remember you, love
TTITLE18=Don't blame me
TTITLE19=Jump through the ring
TTITLE20=My funny valentine
TTITLE21=Tenderly
TTITLE22=Nina never knew
TTITLE23=Take my heart
TTITLE24=Amor
EXTD=
EXTT0=
EXTT1=
EXTT2=
EXTT3=
EXTT4=
EXTT5=
EXTT6=
EXTT7=
EXTT8=
EXTT9=
EXTT10=
EXTT11=
EXTT12=
EXTT13=
EXTT14=
EXTT15=
EXTT16=
EXTT17=
EXTT18=
EXTT19=
EXTT20=
EXTT21=
EXTT22=
EXTT23=
EXTT24=
PLAYORDER=
